<?xml version="1.0" standalone="no"?>
<!DOCTYPE svg PUBLIC "-//W3C//DTD SVG 20010904//EN"
 "http://www.w3.org/TR/2001/REC-SVG-20010904/DTD/svg10.dtd">
<svg version="1.0" xmlns="http://www.w3.org/2000/svg"
 width="729.000000pt" height="729.000000pt" viewBox="0 0 729.000000 729.000000"
 preserveAspectRatio="xMidYMid meet">
<metadata>
Created by potrace 1.14, written by Peter Selinger 2001-2017
</metadata>
<g transform="translate(0.000000,729.000000) scale(0.100000,-0.100000)"
fill="#000000" stroke="none">
<path d="M3170 6878 c-489 -41 -1003 -200 -1375 -425 -188 -114 -419 -311
-516 -442 l-25 -34 -54 35 c-126 80 -273 115 -438 105 -125 -9 -195 -27 -312
-85 -80 -39 -109 -60 -185 -137 -153 -153 -224 -310 -233 -515 -4 -96 -1 -130
16 -199 81 -317 327 -532 655 -572 133 -16 311 13 419 68 28 13 28 13 65 -44
217 -343 594 -630 1078 -821 54 -22 101 -44 102 -49 2 -5 -20 -25 -49 -43 -29
-19 -96 -77 -148 -130 -217 -219 -309 -398 -298 -580 15 -236 195 -436 474
-529 51 -17 101 -31 112 -31 14 0 24 -10 31 -33 18 -58 62 -239 90 -374 l28
-131 -100 -32 c-218 -69 -418 -200 -542 -356 -106 -132 -138 -237 -116 -386
22 -159 117 -307 281 -440 137 -110 417 -216 682 -258 113 -18 342 -8 443 20
101 27 239 88 333 146 l72 46 56 -51 c89 -82 232 -139 459 -185 283 -58 588
-9 785 124 121 82 234 245 292 420 30 89 32 104 32 240 1 114 -3 158 -18 205
-28 89 -82 191 -128 241 l-41 44 114 54 c211 99 346 141 709 220 403 87 541
154 731 353 151 158 225 307 253 512 39 276 -31 529 -194 704 -125 134 -233
157 -260 56 -14 -51 -8 -81 43 -199 63 -149 88 -255 94 -401 5 -113 3 -134
-17 -195 -28 -86 -95 -191 -162 -255 -104 -100 -294 -170 -553 -204 -154 -20
-324 -58 -450 -102 -141 -49 -360 -158 -495 -247 -102 -68 -119 -76 -162 -76
-26 0 -48 4 -48 9 0 58 40 359 61 456 27 127 21 118 129 190 149 99 240 174
296 246 111 140 139 215 138 369 -2 264 -113 458 -323 569 -45 24 -79 46 -74
50 4 4 58 29 118 56 352 155 644 377 839 638 l58 77 39 -35 c68 -61 172 -123
254 -152 73 -25 92 -27 225 -27 137 0 150 2 239 32 137 47 222 101 321 201
434 443 245 1175 -340 1316 -198 48 -445 0 -611 -120 -27 -19 -53 -35 -59 -35
-5 0 -25 27 -45 61 -129 221 -356 441 -630 613 -390 245 -922 412 -1448 455
-150 13 -566 12 -717 -1z m-2190 -827 c85 -19 240 -82 240 -98 0 -10 -49 -83
-56 -83 -2 0 -26 11 -52 24 -86 43 -178 66 -269 66 -106 0 -156 -12 -268 -65
-143 -67 -252 -178 -322 -330 -50 -110 -42 -301 17 -375 26 -33 52 -18 62 37
17 100 125 275 216 351 145 121 336 182 495 158 l45 -7 -38 -67 c-92 -163
-124 -286 -124 -472 1 -173 22 -265 110 -466 18 -42 -289 -71 -420 -40 -93 22
-219 83 -287 139 -104 85 -197 233 -230 367 -20 78 -17 259 5 340 41 149 133
286 254 380 180 139 403 189 622 141z m5695 -196 c227 -47 425 -234 502 -473
49 -152 41 -350 -20 -502 -93 -229 -300 -411 -530 -465 -173 -41 -408 3 -565
106 l-50 33 33 42 c47 63 102 178 126 270 19 67 22 107 22 259 1 174 -2 198
-40 363 -5 21 -3 22 78 22 165 0 303 -56 411 -164 106 -108 159 -219 174 -373
6 -51 10 -63 25 -63 24 0 56 47 68 101 14 59 14 215 0 281 -27 126 -112 259
-217 337 -142 107 -359 128 -515 50 -34 -17 -70 -38 -79 -46 -21 -19 -33 -12
-46 27 -10 27 -8 32 26 60 57 46 183 109 264 129 90 24 237 26 333 6z m-4410
-266 c127 -12 299 -48 401 -84 l72 -26 -20 -62 c-29 -90 -21 -227 17 -317 35
-83 83 -143 138 -169 60 -29 94 -26 157 12 73 43 116 125 127 240 l8 78 35
-26 c52 -38 155 -68 210 -60 75 11 116 39 142 95 26 56 33 61 42 27 10 -42 82
-113 138 -137 66 -28 159 -24 266 12 l72 24 0 -21 c0 -79 62 -223 121 -281 32
-32 46 -38 92 -42 91 -7 166 50 220 167 25 56 31 81 34 166 3 66 0 117 -10
151 l-13 51 50 16 c140 44 284 61 506 61 197 -1 225 -3 335 -28 227 -51 277
-68 629 -214 l39 -16 -6 -91 c-8 -113 -10 -119 -50 -133 -18 -5 -106 -36 -197
-67 -305 -104 -655 -199 -945 -255 -873 -169 -1902 -151 -2881 50 -207 43
-441 102 -649 165 -49 15 -121 36 -160 47 -38 11 -75 24 -81 29 -39 32 -68
420 -34 453 22 21 267 103 405 135 275 64 484 78 790 50z m625 -93 c30 -15 87
-49 127 -74 l71 -47 7 -102 c8 -117 -2 -178 -40 -233 -113 -165 -306 -11 -308
245 0 44 5 98 12 120 16 49 60 127 69 123 4 -2 32 -16 62 -32z m1565 -108 c55
-195 28 -361 -72 -449 -60 -52 -115 -51 -165 3 -62 67 -98 170 -98 285 0 67 2
73 28 91 54 38 245 127 283 131 4 1 14 -27 24 -61z"/>
</g>
</svg>
