<?xml version="1.0" standalone="no"?>
<!DOCTYPE svg PUBLIC "-//W3C//DTD SVG 20010904//EN"
 "http://www.w3.org/TR/2001/REC-SVG-20010904/DTD/svg10.dtd">
<svg version="1.0" xmlns="http://www.w3.org/2000/svg"
 width="400.000000pt" height="400.000000pt" viewBox="0 0 400.000000 400.000000"
 preserveAspectRatio="xMidYMid meet">
<metadata>
Created by potrace 1.14, written by Peter Selinger 2001-2017
</metadata>
<g transform="translate(0.000000,400.000000) scale(0.100000,-0.100000)"
fill="#000000" stroke="none">
<path d="M1014 3693 c4 -15 57 -199 117 -408 134 -463 133 -462 160 -555 12
-41 24 -78 28 -82 3 -3 22 -8 41 -11 71 -11 109 -28 148 -67 61 -61 81 -111
78 -195 -3 -83 -26 -136 -82 -185 -70 -61 -159 -79 -249 -51 -48 15 -120 73
-142 114 -9 17 -47 8 -544 -113 -294 -73 -541 -134 -549 -137 -13 -4 42 -23
113 -37 43 -9 63 -14 107 -26 25 -7 56 -14 70 -16 14 -3 34 -8 45 -11 11 -4
25 -8 30 -9 6 -1 132 -32 280 -69 149 -36 281 -69 295 -71 14 -3 39 -9 55 -14
70 -22 94 -21 106 2 21 41 83 88 138 104 141 42 275 -30 322 -174 15 -47 6
-139 -20 -189 -36 -72 -134 -133 -212 -133 -22 0 -29 -6 -38 -32 -9 -30 -101
-346 -114 -393 -3 -11 -17 -60 -32 -110 -14 -49 -35 -119 -45 -155 -10 -36
-37 -130 -59 -210 -23 -80 -44 -154 -47 -165 -4 -12 15 2 47 35 57 61 404 421
600 623 l126 131 -20 45 c-27 63 -26 145 3 205 59 122 183 176 318 137 59 -17
137 -92 151 -148 19 -71 21 -124 5 -167 -9 -23 -17 -48 -20 -56 -3 -9 26 -47
72 -95 168 -176 434 -452 512 -534 46 -47 106 -110 134 -139 28 -29 51 -52 53
-50 1 2 -8 39 -22 83 -13 44 -34 112 -45 150 -11 39 -29 99 -40 135 -11 36
-22 72 -24 80 -9 39 -27 100 -84 295 -34 116 -70 237 -79 270 -14 46 -22 60
-37 61 -76 2 -162 47 -202 107 -39 59 -48 85 -51 145 -4 94 58 194 147 239 48
23 174 24 217 1 45 -24 115 -88 115 -104 0 -19 0 -19 180 26 87 22 167 41 177
43 10 2 38 9 63 16 25 7 52 14 60 16 8 2 145 35 304 74 158 39 295 71 303 71
29 0 2 18 -39 25 -24 5 -45 9 -48 10 -3 0 -149 36 -325 79 -176 43 -396 98
-490 121 l-170 42 -42 -47 c-82 -92 -204 -117 -311 -63 -190 96 -185 361 7
458 29 15 59 21 111 24 10 1 21 21 32 59 8 31 55 192 103 357 137 474 192 665
189 665 -2 0 -25 -24 -53 -52 -27 -29 -84 -89 -126 -133 -42 -44 -157 -163
-254 -265 -98 -102 -215 -223 -260 -270 -48 -51 -79 -91 -77 -100 3 -8 12 -35
21 -60 20 -53 15 -119 -13 -182 -68 -153 -279 -193 -406 -78 -74 68 -102 203
-59 289 l21 41 -46 48 c-25 26 -131 136 -236 245 -105 110 -217 227 -250 260
-217 228 -249 259 -242 230z m926 -1545 c0 10 11 11 42 7 24 -4 45 -10 48 -13
3 -4 14 -12 25 -18 46 -26 72 -118 48 -174 -21 -49 -81 -98 -103 -85 -6 3 -10
1 -10 -4 0 -13 -61 -7 -92 10 -27 14 -67 59 -69 77 -3 26 -4 31 -11 37 -4 4
-5 12 -3 18 2 7 6 25 9 40 4 15 11 25 16 22 5 -3 7 1 4 9 -7 19 42 70 61 62 8
-3 14 -2 14 2 -3 19 2 25 11 12 7 -11 10 -11 10 -2z"/>
<path d="M2075 2071 c-3 -5 -2 -12 3 -15 5 -3 9 1 9 9 0 17 -3 19 -12 6z"/>
</g>
</svg>
